<svg xmlns="http://www.w3.org/2000/svg" width="120" height="160" viewBox="0 0 120 160" role="img" aria-label="血河逆流 · 古风武侠卡牌" data-art-direction="ancient-wuxia" data-kind="card" data-card-id="blood_river_strike" data-theme="古风武侠江湖水墨">
  <title>血河逆流 · 古风武侠卡牌</title>
  <desc>古风武侠江湖水墨小卡插画：血河逆流对应招式为血河倒卷 · 魔心噬天，以飞墨、剑气和卷轴纸纹表现招式气韵。</desc>
  <defs><linearGradient id="paper" x1="0" y1="0" x2="1" y2="1"><stop stop-color="#f7ecd2"/><stop offset="0.55" stop-color="#7d1021"/><stop offset="1" stop-color="#100b09"/></linearGradient></defs>
  <rect width="120" height="160" rx="10" fill="#120c08"/>
  <rect x="5" y="5" width="110" height="150" rx="8" fill="url(#paper)"/>
  <path d="M0 92c18-16 32-14 48-5 16 10 28 10 46 0 12-7 20-7 26 2v71H0z" fill="#050403" opacity=".32"/>
  <g transform="translate(60 63) scale(.16)"><path d="M-180 60c74-112 148-114 220-4 36 55 80 69 140 16-12 80-72 130-148 116C52 172-20 72-180 60z" fill="#b31830" stroke="#ffd0c8" stroke-width="6" opacity=".9"/></g>
  <rect x="10" y="112" width="100" height="28" rx="7" fill="#080504" opacity=".72"/>
  <text x="60" y="129" text-anchor="middle" font-family="KaiTi, STKaiti, serif" font-size="12" font-weight="700" fill="#fff1ca">血河逆流</text>
  <text x="60" y="145" text-anchor="middle" font-family="KaiTi, STKaiti, serif" font-size="6" fill="#ead8ad">demonic · 古风武侠</text>
  <rect x="5" y="5" width="110" height="150" rx="8" fill="none" stroke="#f1d99f" stroke-width="1.5" opacity=".76"/>
</svg>
