<svg xmlns="http://www.w3.org/2000/svg" viewBox="0 0 640 360" role="img" aria-label="青霜剑派别院 · 古风武侠场景" data-art-direction="ancient-wuxia" data-kind="location" data-location-id="sword_house" data-theme="古风武侠江湖水墨场景">
  <title>青霜剑派别院 · 古风武侠场景</title>
  <desc>青霜剑派别院古风武侠场景插画：青石演武场、剑架霜光、松风山门、门规石碑与白衣弟子。江湖水墨、卷轴纸纹、飞檐、山水留白与古风武侠氛围。</desc>
  <defs>
    <linearGradient id="paper" x1="0" y1="0" x2="1" y2="1"><stop stop-color="#f7ecd2"/><stop offset="0.52" stop-color="#4f7898"/><stop offset="1" stop-color="#100b09"/></linearGradient>
    <radialGradient id="halo" cx="50%" cy="28%" r="62%"><stop stop-color="#f3dfb7" stop-opacity=".55"/><stop offset="1" stop-color="#050403" stop-opacity=".62"/></radialGradient>
    <filter id="ink"><feTurbulence type="fractalNoise" baseFrequency="0.018" numOctaves="3" seed="17"/><feColorMatrix type="saturate" values="0"/><feComponentTransfer><feFuncA type="table" tableValues="0 .16"/></feComponentTransfer></filter>
    <pattern id="cloud" width="96" height="44" patternUnits="userSpaceOnUse"><path d="M5 29c18-20 40-20 56 0 10-8 23-9 34 0" fill="none" stroke="#f3dfb7" stroke-width="2" opacity=".20"/></pattern>
  </defs>
  <rect width="640" height="360" rx="28" fill="#100b08"/>
  <rect x="12" y="12" width="616" height="336" rx="22" fill="url(#paper)"/>
  <rect x="12" y="12" width="616" height="336" rx="22" fill="url(#cloud)"/>
  <rect x="12" y="12" width="616" height="336" rx="22" filter="url(#ink)"/>
  <path d="M0 244c78-62 138-66 210-24 82 48 156 43 236-2 72-40 132-34 194 22v120H0z" fill="#050403" opacity=".28"/>
  <path d="M38 158c78-64 150-84 242-56 76 23 132 14 214-38 40-25 72-30 108-15" fill="none" stroke="#fff1cd" stroke-width="7" stroke-linecap="round" opacity=".2"/>
  <path d="M58 284c142-50 330-42 522-96" fill="none" stroke="#fff1cd" stroke-width="5" stroke-linecap="round" opacity=".2"/>
  <g><path d="M100 392V204h408v188M80 204h448l-84-70H164z" fill="#18202a" stroke="#e5d096" stroke-width="8" opacity=".9"/><path d="M192 392V264h224v128M220 322h168" stroke="#e5d096" stroke-width="8" opacity=".58"/><path d="M160 128l318 270M468 128L150 398" stroke="#f7f0d0" stroke-width="7" opacity=".6"/><circle cx="314" cy="126" r="34" fill="#eaf6ff" opacity=".36"/></g>
  <rect x="34" y="254" width="256" height="70" rx="18" fill="#080504" opacity=".72"/>
  <text x="162" y="298" text-anchor="middle" font-family="KaiTi, STKaiti, serif" font-size="31" font-weight="700" fill="#fff1ca">青霜剑派别院</text>
  <text x="486" y="314" text-anchor="middle" font-family="KaiTi, STKaiti, serif" font-size="20" fill="#f2d18f" opacity=".88">古风武侠 · 江湖水墨</text>
  <rect x="12" y="12" width="616" height="336" rx="22" fill="url(#halo)"/>
  <rect x="12" y="12" width="616" height="336" rx="22" fill="none" stroke="#f1d99f" stroke-width="3" opacity=".76"/>
</svg>
